<svg xmlns="http://www.w3.org/2000/svg" xmlns:xlink="http://www.w3.org/1999/xlink" version="1.1" width="128" height="128" viewBox="0 0 100 100">


		<defs>
			<g id="background">
<path fill="url(#background-gradient)" stroke="none" d=" M 85.35 85.35 Q 100 70.6 100 50 100 29.3 85.35 14.65 70.7 0 50 0 29.3 0 14.65 14.65 0 29.3 0 50 0 70.6 14.65 85.35 29.3 100 50 100 70.7 100 85.35 85.35 Z"/>
</g><g id="middle-1">
<path fill="#000000" fill-opacity="0.10196078431372549" stroke="none" d=" M 0 50 Q 0 70.7 14.75 85.4 29.3 100 50 100 61 100 71.15 95.25 L 0.1 47.95 0 50 M 98 63.8 L 99.2 59.1 22.6 8.15 18.6 11.05 98 63.8 Z"/>
</g><mask id="mask">
<path fill="#FFFFFF" stroke="none" d=" M 85.35 85.35 Q 100 70.6 100 50 100 29.3 85.35 14.65 70.7 0 50 0 29.3 0 14.65 14.65 0 29.3 0 50 0 70.6 14.65 85.35 29.3 100 50 100 70.7 100 85.35 85.35 Z"/>
</mask>
			
	<linearGradient id="background-gradient" x1="0" y1="0" y2="1" x2="0">
		<stop stop-color="#5075C1" offset="0%"/>
		<stop stop-color="#5075C1" offset="100%"/>
	</linearGradient>

			
			
			<g transform="scale(3.125) translate(0 1)" id="picture"><path d="M11.8 15.4c-.3-.4-1-.5-1.4-.2l-4 3c-.3.2-.4.5-.4.8s.1.6.4.8l4 3c.2.1.4.2.6.2.3 0 .6-.1.8-.4.3-.4.2-1.1-.2-1.4L8.7 19l2.9-2.2c.4-.3.5-1 .2-1.4z M31 0H1C.4 0 0 .4 0 1v28c0 .6.4 1 1 1h30c.6 0 1-.4 1-1V1c0-.6-.4-1-1-1zm-1 2v4H2V2h28zM2 28V8h28v20H2z M28 5c.6 0 1-.4 1-1s-.4-1-1-1-1 .4-1 1 .4 1 1 1zm0-1.5V4v-.5zM25 5c.6 0 1-.4 1-1s-.4-1-1-1-1 .4-1 1 .4 1 1 1zm0-1.5V4v-.5zM22 5c.6 0 1-.4 1-1s-.4-1-1-1-1 .4-1 1 .4 1 1 1zm0-1.5V4v-.5zm-.4 11.7c-.4-.3-1.1-.2-1.4.2s-.2 1.1.2 1.4l2.9 2.2-2.9 2.2c-.4.3-.5 1-.2 1.4.2.3.5.4.8.4.2 0 .4-.1.6-.2l4-3c.3-.2.4-.5.4-.8s-.1-.6-.4-.8l-4-3zm-2.2-3.1c-.5-.2-1.1 0-1.3.4l-6 12c-.2.5 0 1.1.4 1.3.2.2.3.2.5.2.4 0 .7-.2.9-.6l6-12c.2-.4 0-1-.5-1.3z"/></g>
			
	<linearGradient id="picture-gradient" x1="0" y1="0" y2="1" x2="0">
		<stop stop-color="#ffffff" offset="0%"/>
		<stop stop-color="#e5eff9" offset="100%"/>
	</linearGradient>

		</defs>

		

			<use xlink:href="#background" fill="url(#background-gradient)"/>

		<use xlink:href="#middle-1"/>

			<g mask="url(#mask)">
				<g transform="             translate(                                 50 50 )                             translate(0 0)  scale(0.5)                               translate(                                 -50 -50 )">
						<use xlink:href="#picture" fill="url(#picture-gradient)"/>
				</g>
			</g>

		



	</svg>